<?xml version="1.0" encoding="utf-8"?>
<!-- Generator: Adobe Illustrator 24.0.2, SVG Export Plug-In . SVG Version: 6.00 Build 0)  -->
<svg version="1.1" id="Layer_1" xmlns="http://www.w3.org/2000/svg" xmlns:xlink="http://www.w3.org/1999/xlink" x="0px" y="0px"
	 viewBox="0 0 1920 1080" style="enable-background:new 0 0 1920 1080;" xml:space="preserve">
<style type="text/css">
	.st0{fill:#FFD95D;}
	.st1{fill:#183156;}
</style>
<g>
	<rect x="957.67" y="560.85" class="st0" width="4" height="8"/>
	<rect x="957.67" y="512.85" class="st0" width="4" height="8"/>
	<rect x="931.67" y="538.85" class="st0" width="8" height="4"/>
	<rect x="979.67" y="538.85" class="st0" width="8" height="4"/>
	
		<rect x="974.63" y="553.82" transform="matrix(0.7071 -0.7071 0.7071 0.7071 -108.3931 853.9631)" class="st0" width="4" height="8"/>
	
		<rect x="940.69" y="519.88" transform="matrix(0.7071 -0.7071 0.7071 0.7071 -94.3348 820.0231)" class="st0" width="4" height="8"/>
	
		<rect x="938.69" y="555.82" transform="matrix(0.7071 -0.7071 0.7071 0.7071 -118.3308 829.9694)" class="st0" width="8" height="4"/>
	
		<rect x="972.63" y="521.88" transform="matrix(0.7071 -0.7071 0.7071 0.7071 -84.3922 844.0267)" class="st0" width="8" height="4"/>
	<path class="st1" d="M985.14,608.89c-7.24,0-15.42-2.77-23.98-8.23c-13.37-8.53-26.19-22.67-36.09-39.83
		c-9.91-17.16-15.75-35.33-16.45-51.17c-0.72-16.31,4.09-28.3,13.55-33.76c9.46-5.46,22.25-3.63,36.01,5.14
		c13.37,8.52,26.19,22.67,36.1,39.83c9.91,17.16,15.75,35.33,16.45,51.17c0.72,16.31-4.09,28.3-13.55,33.76
		C993.59,607.87,989.54,608.89,985.14,608.89z M934.21,476.81c-3.71,0-7.09,0.85-10.05,2.55c-8.1,4.68-12.21,15.37-11.56,30.12
		c0.67,15.21,6.32,32.74,15.92,49.35c9.59,16.61,21.94,30.27,34.78,38.46c12.44,7.93,23.76,9.73,31.86,5.05
		c8.1-4.68,12.21-15.37,11.56-30.12c-0.67-15.21-6.32-32.74-15.92-49.35c-9.59-16.61-21.94-30.27-34.78-38.46
		C948.12,479.38,940.67,476.81,934.21,476.81z"/>
	<path class="st1" d="M934.2,608.89c-4.4,0-8.45-1.02-12.03-3.09c-9.46-5.46-14.27-17.45-13.55-33.76
		c0.7-15.84,6.54-34.01,16.45-51.17c9.91-17.16,22.73-31.31,36.09-39.83c13.76-8.77,26.55-10.6,36.01-5.14
		c9.46,5.46,14.27,17.45,13.55,33.76c-0.7,15.84-6.54,34.02-16.45,51.17c-9.91,17.16-22.73,31.3-36.1,39.83
		C949.62,606.12,941.44,608.89,934.2,608.89L934.2,608.89z M985.12,476.81c-6.46,0-13.91,2.56-21.81,7.6
		c-12.84,8.19-25.19,21.84-34.78,38.46c-9.59,16.61-15.24,34.14-15.92,49.35c-0.65,14.74,3.45,25.44,11.56,30.12
		c8.1,4.68,19.42,2.89,31.86-5.05c12.84-8.19,25.19-21.84,34.78-38.46c9.59-16.61,15.24-34.14,15.92-49.35
		c0.65-14.74-3.45-25.44-11.56-30.12C992.21,477.66,988.83,476.81,985.12,476.81L985.12,476.81z"/>
	<path class="st1" d="M959.67,580.81c-19.81,0-38.47-4.03-52.54-11.34c-14.48-7.53-22.46-17.69-22.46-28.62s7.98-21.09,22.46-28.62
		c14.07-7.31,32.73-11.34,52.54-11.34c19.81,0,38.47,4.03,52.54,11.34c14.48,7.53,22.46,17.69,22.46,28.62s-7.98,21.09-22.46,28.62
		C998.14,576.78,979.48,580.81,959.67,580.81z M959.67,504.89c-39.15,0-71,16.13-71,35.96c0,19.83,31.85,35.96,71,35.96
		c39.15,0,71-16.13,71-35.96C1030.67,521.02,998.82,504.89,959.67,504.89L959.67,504.89z"/>
	<circle class="st0" cx="962.17" cy="540.85" r="17.5"/>
	<path class="st0" d="M959.67,557.85c-9.37,0-17-7.63-17-17c0-9.37,7.63-17,17-17c9.37,0,17,7.63,17,17
		C976.67,550.23,969.04,557.85,959.67,557.85z M959.67,527.85c-7.17,0-13,5.83-13,13c0,7.17,5.83,13,13,13c7.17,0,13-5.83,13-13
		C972.67,533.69,966.83,527.85,959.67,527.85z"/>
</g>
</svg>
